<svg xmlns="http://www.w3.org/2000/svg" width="102.002" height="102.003" viewBox="0 0 102.002 102.003" fill="#000">
  <g id="database" transform="translate(0)">
    <g id="Group_3" data-name="Group 3" transform="translate(0.003)">
      <g id="Group_2" data-name="Group 2">
        <path id="Path_17" data-name="Path 17" d="M93.131,2.4A65.724,65.724,0,0,0,74.487,0,65.721,65.721,0,0,0,55.844,2.4c-7.341,2.27-8.882,5.323-8.882,7.485V33.715c-.271-.092-.548-.183-.837-.272a65.565,65.565,0,0,0-18.62-2.4,65.558,65.558,0,0,0-18.62,2.4C1.552,35.712.013,38.766.013,40.927V92.116c0,2.162,1.539,5.215,8.872,7.485a65.564,65.564,0,0,0,18.62,2.4,65.558,65.558,0,0,0,18.62-2.4C53.458,97.331,55,94.278,55,92.116V68.284c5.023,1.7,12.05,2.677,19.49,2.677a65.722,65.722,0,0,0,18.643-2.4c7.341-2.27,8.882-5.323,8.882-7.485V9.886C102.013,7.724,100.472,4.671,93.131,2.4ZM51.013,92.116c0,.724-1.615,2.3-6.066,3.679A61.541,61.541,0,0,1,27.5,98.018,61.552,61.552,0,0,1,10.063,95.8C5.612,94.417,4,92.84,4,92.116V80.485a23.569,23.569,0,0,0,4.887,2.053,65.565,65.565,0,0,0,18.62,2.4,65.559,65.559,0,0,0,18.62-2.4,23.559,23.559,0,0,0,4.887-2.053V92.116Zm0-17.063c0,.724-1.615,2.3-6.066,3.679A61.549,61.549,0,0,1,27.5,80.955a61.552,61.552,0,0,1-17.442-2.223C5.612,77.354,4,75.777,4,75.053V63.422a23.579,23.579,0,0,0,4.887,2.053,65.565,65.565,0,0,0,18.62,2.4,65.559,65.559,0,0,0,18.62-2.4,23.548,23.548,0,0,0,4.887-2.053V75.053Zm0-17.063c0,.724-1.615,2.3-6.066,3.679A61.55,61.55,0,0,1,27.5,63.892a61.552,61.552,0,0,1-17.442-2.223C5.612,60.292,4,58.714,4,57.99V46.359a23.579,23.579,0,0,0,4.887,2.053,65.565,65.565,0,0,0,18.62,2.4,65.558,65.558,0,0,0,18.62-2.4,23.548,23.548,0,0,0,4.887-2.053V57.99ZM44.947,44.606A61.55,61.55,0,0,1,27.5,46.83a61.552,61.552,0,0,1-17.442-2.223C5.612,43.229,4,41.652,4,40.928s1.615-2.3,6.066-3.679A61.551,61.551,0,0,1,27.5,35.026a61.552,61.552,0,0,1,17.442,2.223c4.45,1.378,6.066,2.955,6.066,3.679S49.4,43.229,44.947,44.606ZM98.028,61.075c0,.5-1.092,2.138-6.075,3.679a61.706,61.706,0,0,1-17.466,2.223c-7.742,0-14.908-1.088-19.49-2.934V51.221c5.023,1.7,12.05,2.677,19.49,2.677A65.722,65.722,0,0,0,93.13,51.5a23.6,23.6,0,0,0,4.9-2.056V61.075Zm0-17.063c0,.5-1.092,2.138-6.075,3.679a61.706,61.706,0,0,1-17.466,2.223c-7.742,0-14.908-1.088-19.49-2.934V40.927c0-1.58-.826-3.637-4.134-5.516a1.994,1.994,0,0,0,.083-.567V32.379a23.6,23.6,0,0,0,4.9,2.056,65.728,65.728,0,0,0,18.643,2.4,65.722,65.722,0,0,0,18.643-2.4,23.6,23.6,0,0,0,4.9-2.056V44.012Zm0-17.063c0,.5-1.092,2.138-6.075,3.679a61.714,61.714,0,0,1-17.466,2.223,61.715,61.715,0,0,1-17.466-2.223c-4.983-1.541-6.075-3.178-6.075-3.679V15.316h0a23.614,23.614,0,0,0,4.9,2.056,65.727,65.727,0,0,0,18.643,2.4,65.722,65.722,0,0,0,18.643-2.4,23.6,23.6,0,0,0,4.9-2.056V26.949ZM91.954,13.565a61.714,61.714,0,0,1-17.466,2.223,61.714,61.714,0,0,1-17.466-2.223c-4.983-1.541-6.075-3.178-6.075-3.679s1.091-2.138,6.075-3.679A61.705,61.705,0,0,1,74.487,3.984,61.709,61.709,0,0,1,91.954,6.208c4.983,1.541,6.075,3.178,6.075,3.679S96.937,12.024,91.954,13.565Z" transform="translate(-0.013)"/>
      </g>
    </g>
    <g id="Group_5" data-name="Group 5" transform="translate(69.801 73.857)">
      <g id="Group_4" data-name="Group 4">
        <path id="Path_18" data-name="Path 18" d="M381.982,383.389l-12.08-12.08a1.992,1.992,0,0,0-3.4,1.409v5.438H352.356a1.992,1.992,0,0,0,0,3.984h16.137a1.992,1.992,0,0,0,1.992-1.992v-2.62l7.271,7.271-7.271,7.271v-2.381a1.992,1.992,0,0,0-1.992-1.992H352.881a1.992,1.992,0,1,0,0,3.984H366.5v5.2a1.992,1.992,0,0,0,3.4,1.409l12.08-12.08A1.993,1.993,0,0,0,381.982,383.389Z" transform="translate(-350.364 -370.725)"/>
      </g>
    </g>
    <g id="Group_7" data-name="Group 7" transform="translate(62.691 90.827)">
      <g id="Group_6" data-name="Group 6">
        <path id="Path_19" data-name="Path 19" d="M318.074,456.488a1.991,1.991,0,1,0,.584,1.409A2.006,2.006,0,0,0,318.074,456.488Z" transform="translate(-314.673 -455.904)"/>
      </g>
    </g>
    <g id="Group_9" data-name="Group 9" transform="translate(0 0.003)">
      <g id="Group_8" data-name="Group 8" transform="translate(0)">
        <path id="Path_20" data-name="Path 20" d="M28.156,16.744H14.073a1.992,1.992,0,0,0-1.992,1.992v2.62L4.81,14.086l7.271-7.271V9.2a1.992,1.992,0,0,0,1.992,1.992H28.157a1.992,1.992,0,1,0,0-3.984H16.065v-5.2A1.992,1.992,0,0,0,12.664.6L.584,12.677a1.993,1.993,0,0,0,0,2.818l12.08,12.08a1.992,1.992,0,0,0,3.4-1.409V20.728H28.156a1.992,1.992,0,0,0,0-3.984Z" transform="translate(0 -0.014)"/>
      </g>
    </g>
    <g id="Group_11" data-name="Group 11" transform="translate(35.328 7.193)">
      <g id="Group_10" data-name="Group 10">
        <path id="Path_21" data-name="Path 21" d="M180.727,36.689a1.991,1.991,0,1,0,.584,1.408A2.007,2.007,0,0,0,180.727,36.689Z" transform="translate(-177.326 -36.105)"/>
      </g>
    </g>
  </g>
</svg>
