<svg xmlns="http://www.w3.org/2000/svg" width="23.068" height="40.642" viewBox="0 0 23.068 40.642">
  <path id="facebook_1_" data-name="facebook (1)" d="M14.749,40.642H8.24A1.974,1.974,0,0,1,6.269,38.67V23.99h-3.8A1.974,1.974,0,0,1,.5,22.019v-6.29a1.974,1.974,0,0,1,1.971-1.971h3.8v-3.15A10.725,10.725,0,0,1,9.1,2.922,10.215,10.215,0,0,1,16.636,0L21.6.008a1.974,1.974,0,0,1,1.968,1.971V7.82A1.973,1.973,0,0,1,21.6,9.791H18.255c-1.019,0-1.279.2-1.334.267-.091.1-.2.4-.2,1.208v2.489h4.625a2,2,0,0,1,.975.248,1.978,1.978,0,0,1,1.014,1.724l0,6.29a1.973,1.973,0,0,1-1.971,1.971H16.72V38.67a1.974,1.974,0,0,1-1.972,1.971Zm-6.1-2.383h5.686V22.923a1.318,1.318,0,0,1,1.316-1.316h5.3l0-5.468h-5.3a1.318,1.318,0,0,1-1.316-1.316V11.268a4.058,4.058,0,0,1,.8-2.785,4.038,4.038,0,0,1,3.12-1.073h2.931V2.39l-4.551-.007c-4.923,0-7.983,3.152-7.983,8.224v4.216a1.318,1.318,0,0,1-1.316,1.316H2.883v5.468H7.335a1.318,1.318,0,0,1,1.316,1.316ZM21.6,2.39h0Zm0,0" transform="translate(-0.5 0)" fill="#fff"/>
</svg>
