<svg xmlns="http://www.w3.org/2000/svg" width="108.212" height="108.203" viewBox="0 0 108.212 108.203" fill="#000">
  <g id="framework" transform="translate(-0.997 -1)">
    <path id="Path_9" data-name="Path 9" d="M39.471,10.236a5.236,5.236,0,1,0-5.236,5.236A5.242,5.242,0,0,0,39.471,10.236Zm-6.981,0a1.745,1.745,0,1,1,1.745,1.745A1.747,1.747,0,0,1,32.49,10.236Z" transform="translate(20.868 2.981)"/>
    <path id="Path_10" data-name="Path 10" d="M7.618,41.7a5.237,5.237,0,1,0,7.152,1.918A5.245,5.245,0,0,0,7.618,41.7Zm3.49,6.047a1.745,1.745,0,1,1,.637-2.384A1.745,1.745,0,0,1,11.108,47.746Z" transform="translate(2.983 29.808)"/>
    <path id="Path_11" data-name="Path 11" d="M60.853,41.7a5.237,5.237,0,0,0-5.236,9.072h0A5.237,5.237,0,0,0,60.853,41.7Zm-1.1,5.408a1.744,1.744,0,1,1-.639-2.384A1.743,1.743,0,0,1,59.748,47.106Z" transform="translate(38.753 29.808)"/>
    <path id="Path_12" data-name="Path 12" d="M103.1,65.463A12.205,12.205,0,0,0,86.96,69.079L74.3,62.747V47.454l19.34-9.672a8.641,8.641,0,0,0,4.579,3.059,8.725,8.725,0,1,0-6.171-10.686,8.627,8.627,0,0,0,.031,4.5L74.3,43.552V32.414H56.849v-7.12a12.216,12.216,0,1,0-3.49,0v7.12H35.906V43.55l-17.78-8.89A8.7,8.7,0,0,0,7.47,23.986a8.725,8.725,0,1,0,9.094,13.8l19.342,9.67V62.745l-12.661,6.33a12.195,12.195,0,1,0,1.565,3.119l11.1-5.545v11.14H53.358V91.927a8.726,8.726,0,1,0,3.49,0V77.789H74.3V66.649L85.393,72.2A12.217,12.217,0,1,0,103.1,65.463Zm-7.677-34.4a5.236,5.236,0,1,1,.524,3.972,5.205,5.205,0,0,1-.524-3.972ZM46.377,13.216A8.726,8.726,0,1,1,55.1,21.942a8.736,8.736,0,0,1-8.726-8.726ZM14.262,35.032a5.232,5.232,0,1,1,.524-3.972,5.24,5.24,0,0,1-.524,3.972ZM17.58,83.6a8.727,8.727,0,1,1,3.194-11.92A8.735,8.735,0,0,1,17.58,83.6Zm42.759,16.878A5.236,5.236,0,1,1,55.1,95.241,5.242,5.242,0,0,1,60.339,100.477ZM70.81,74.3H39.4V35.9H70.81Zm33.737,6.106a8.727,8.727,0,1,1-3.194-11.92,8.732,8.732,0,0,1,3.194,11.92Z" transform="translate(0)"/>
    <path id="Path_13" data-name="Path 13" d="M49.433,31H38.962v3.49H31.981v3.49H25V48.452H49.433ZM28.49,41.471h3.49v3.49H28.49Zm6.981,3.49V37.981h3.49v6.981Zm10.471,0h-3.49V34.49h3.49Z" transform="translate(17.887 22.356)"/>
    <path id="Path_14" data-name="Path 14" d="M25,23h3.49v3.49H25Z" transform="translate(17.887 16.395)"/>
    <path id="Path_15" data-name="Path 15" d="M29,23H46.452v3.49H29Z" transform="translate(20.868 16.395)"/>
    <path id="Path_16" data-name="Path 16" d="M25,27H49.433v3.49H25Z" transform="translate(17.887 19.375)"/>
  </g>
</svg>
