<svg xmlns="http://www.w3.org/2000/svg" width="44.939" height="44.939" viewBox="0 0 44.939 44.939">
  <g id="linkedin_4_" data-name="linkedin (4)" transform="translate(1 1)">
    <path id="Path_114" data-name="Path 114" d="M36.23,36.962v0h.011V21.213c0-7.7-1.659-13.639-10.665-13.639A9.35,9.35,0,0,0,17.154,12.2h-.125V8.293H8.489V36.961h8.892v-14.2c0-3.738.708-7.352,5.337-7.352,4.561,0,4.629,4.265,4.629,7.591V36.962Z" transform="translate(6.699 5.977)" fill="none" stroke="#fff" stroke-width="2"/>
    <path id="Path_115" data-name="Path 115" d="M.4,7.977H9.3V36.644H.4Z" transform="translate(0.313 6.295)" fill="none" stroke="#fff" stroke-width="2"/>
    <path id="Path_116" data-name="Path 116" d="M5.156,0a5.181,5.181,0,1,0,5.156,5.156A5.158,5.158,0,0,0,5.156,0Z" fill="none" stroke="#fff" stroke-width="2"/>
  </g>
</svg>
