<svg xmlns="http://www.w3.org/2000/svg" version="1.1" xmlns:xlink="http://www.w3.org/1999/xlink" xmlns:svgjs="http://svgjs.dev/svgjs" width="1000" height="625" viewBox="0 0 1000 625"><g transform="matrix(1,0,0,1,0,0)"><svg viewBox="0 0 512 320" data-background-color="#ffffff" preserveAspectRatio="xMidYMid meet" height="625" width="1000" xmlns="http://www.w3.org/2000/svg" xmlns:xlink="http://www.w3.org/1999/xlink"><g id="tight-bounds" transform="matrix(1,0,0,1,0,0)"><svg viewBox="0 0 512 320" height="320" width="512"><g><svg></svg></g><g><svg viewBox="0 0 512 320" height="320" width="512"><g><path d="M96 160c0-88.366 71.634-160 160-160 88.366 0 160 71.634 160 160 0 88.366-71.634 160-160 160-88.366 0-160-71.634-160-160z" fill="#50a060" fill-rule="nonzero" stroke="none" stroke-width="1" stroke-linecap="butt" stroke-linejoin="miter" stroke-miterlimit="10" stroke-dasharray="" stroke-dashoffset="0" font-family="none" font-weight="none" font-size="none" text-anchor="none" style="mix-blend-mode: normal" data-fill-palette-color="tertiary"></path></g><g transform="matrix(1,0,0,1,187.5136476426799,80)"><svg viewBox="0 0 136.9727047146402 160" height="160" width="136.9727047146402"><g><svg viewBox="0 0 136.9727047146402 160" height="160" width="136.9727047146402"><g><svg viewBox="0 0 136.9727047146402 160" height="160" width="136.9727047146402"><g><svg viewBox="0 0 136.9727047146402 160" height="160" width="136.9727047146402"><g id="textblocktransform"><svg viewBox="0 0 136.9727047146402 160" height="160" width="136.9727047146402" id="textblock"><g><svg viewBox="0 0 136.9727047146402 160" height="160" width="136.9727047146402"><g transform="matrix(1,0,0,1,0,0)"><svg width="136.9727047146402" viewBox="0.7 -39.6 34.5 40.300000000000004" height="160" data-palette-color="#ffffff"><path d="M20.4 0.7Q10.95 0.7 5.83-4.1 0.7-8.9 0.7-19.45L0.7-19.45Q0.7-39.6 20.3-39.6L20.3-39.6Q25.05-39.6 29.13-38.45 33.2-37.3 35.2-35.9L35.2-35.9 35.2-23.4 23.2-23.4 23.2-27Q23.2-28.9 22.35-29.8 21.5-30.7 19.8-30.7L19.8-30.7Q18.1-30.7 17.25-29.8 16.4-28.9 16.4-27L16.4-27 16.4-11.9Q16.4-10 17.25-9.1 18.1-8.2 19.8-8.2L19.8-8.2Q21.5-8.2 22.35-9.1 23.2-10 23.2-11.9L23.2-11.9 23.2-15.95 35.2-15.95 35.2-3Q33.15-1.6 29.13-0.45 25.1 0.7 20.4 0.7L20.4 0.7Z" opacity="1" transform="matrix(1,0,0,1,0,0)" fill="#ffffff" class="wordmark-text-0" data-fill-palette-color="quaternary" id="text-0"></path></svg></g></svg></g></svg></g></svg></g><g></g></svg></g></svg></g></svg></g></svg></g><defs></defs></svg><rect width="512" height="320" fill="none" stroke="none" visibility="hidden"></rect></g></svg></g></svg>