<svg id="mail" xmlns="http://www.w3.org/2000/svg" width="54.972" height="39.956" viewBox="0 0 54.972 39.956">
  <g id="Group_20" data-name="Group 20">
    <path id="Path_41" data-name="Path 41" d="M52.153,85.333H2.819A2.963,2.963,0,0,0,0,88.406v33.809a2.963,2.963,0,0,0,2.819,3.074H52.153a2.963,2.963,0,0,0,2.819-3.074V88.406A2.963,2.963,0,0,0,52.153,85.333Zm-1.058,2.3-21.987,17.98a2.746,2.746,0,0,1-3.243,0L3.877,87.638ZM39.35,106.8l11.981,16.136c.012.016.027.028.04.043H3.6c.013-.015.027-.027.04-.043L15.622,106.8a1.225,1.225,0,0,0-.157-1.621,1,1,0,0,0-1.486.171L2.114,121.333V89.079L24.6,107.462a4.707,4.707,0,0,0,5.779,0L52.857,89.079v32.254L40.994,105.354a1,1,0,0,0-1.486-.171A1.224,1.224,0,0,0,39.35,106.8Z" transform="translate(0 -85.333)" fill="#000"/>
  </g>
</svg>
