<svg xmlns="http://www.w3.org/2000/svg" width="95.759" height="95.759" viewBox="0 0 95.759 95.759" fill="#000">
  <g id="Layer_15" data-name="Layer 15" transform="translate(-2 -2)">
    <path id="Path_36" data-name="Path 36" d="M49.88,2a47.88,47.88,0,1,0,47.88,47.88A47.88,47.88,0,0,0,49.88,2Zm0,88.919a41.04,41.04,0,1,1,41.04-41.04,41.04,41.04,0,0,1-41.04,41.04ZM36.2,49.88a6.84,6.84,0,1,1-6.84-6.84A6.84,6.84,0,0,1,36.2,49.88Zm20.52,0a6.84,6.84,0,1,1-6.84-6.84A6.84,6.84,0,0,1,56.719,49.88Zm20.52,0a6.84,6.84,0,1,1-6.84-6.84A6.84,6.84,0,0,1,77.239,49.88Z" transform="translate(0 0)"/>
  </g>
</svg>
