<svg xmlns="http://www.w3.org/2000/svg" viewBox="0 0 60 75" x="0px" y="0px"><title>001 - Devops Cycle</title><path d="M2.245,29H4a1,1,0,0,1,1,1A24.943,24.943,0,0,0,17.2,51.465a6.144,6.144,0,0,1,1.976-3.195l.188-.163A20.9,20.9,0,0,1,9,30a1,1,0,0,1,1-1h1.755a.229.229,0,0,0,.222-.141.218.218,0,0,0-.037-.25L7.186,23.084a.247.247,0,0,0-.371,0L2.06,28.609a.218.218,0,0,0-.037.25A.229.229,0,0,0,2.245,29Z"/><path d="M11.738,19.167l.163.19A20.869,20.869,0,0,1,30,9a1,1,0,0,1,1,1v1.755a.229.229,0,0,0,.141.222.219.219,0,0,0,.25-.037l5.524-4.754a.247.247,0,0,0,0-.372L31.391,2.06a.221.221,0,0,0-.25-.037A.229.229,0,0,0,31,2.245V4a1,1,0,0,1-1,1A24.94,24.94,0,0,0,8.535,17.2a6.2,6.2,0,0,1,3.2,1.971Z"/><path d="M28.859,48.023a.252.252,0,0,0-.1-.023.223.223,0,0,0-.147.06l-5.526,4.754a.248.248,0,0,0,0,.372l5.525,4.754a.221.221,0,0,0,.25.037A.229.229,0,0,0,29,57.755V56a1,1,0,0,1,1-1A24.943,24.943,0,0,0,51.466,42.8a6.246,6.246,0,0,1-3.2-1.98v0l-.155-.179A20.9,20.9,0,0,1,30,51a1,1,0,0,1-1-1V48.245A.229.229,0,0,0,28.859,48.023Z"/><path d="M51,30a1,1,0,0,1-1,1H48.245a.229.229,0,0,0-.222.141.218.218,0,0,0,.037.25l4.754,5.524a.216.216,0,0,0,.371,0l4.755-5.525a.218.218,0,0,0,.037-.25A.229.229,0,0,0,57.755,31H56a1,1,0,0,1-1-1A24.941,24.941,0,0,0,42.8,8.534a6.239,6.239,0,0,1-1.98,3.2l-.181.156A20.9,20.9,0,0,1,51,30Z"/><text x="0" y="75" fill="#000000" font-size="5px" font-weight="bold" font-family="'Helvetica Neue', Helvetica, Arial-Unicode, Arial, Sans-serif"></text><text x="0" y="80" fill="#000000" font-size="5px" font-weight="bold" font-family="'Helvetica Neue', Helvetica, Arial-Unicode, Arial, Sans-serif">from the Noun Project</text></svg>