<svg id="telephone_2_" data-name="telephone (2)" xmlns="http://www.w3.org/2000/svg" width="36.79" height="48.721" viewBox="0 0 36.79 48.721" >
  <path id="Path_100" data-name="Path 100" d="M28.8,11.2c.08-.045.059-.073.339.059a4.485,4.485,0,0,1,1.163.952,15.482,15.482,0,0,1,2.2,3.357.761.761,0,0,0,.048.087,11.574,11.574,0,0,1,1.858,4.978,1.925,1.925,0,0,1-1.17,2.042l-2.338,1.346a5.116,5.116,0,0,0-2.417,3.908,6.47,6.47,0,0,0,.739,4.012l5.762,9.931a6.554,6.554,0,0,0,3.126,2.642,5.159,5.159,0,0,0,4.609-.132l2.341-1.339a1.943,1.943,0,0,1,2.362.013,11.582,11.582,0,0,1,3.4,4.085c.018.032.036.06.056.091a15.434,15.434,0,0,1,1.818,3.577,4.363,4.363,0,0,1,.249,1.478c-.028.307-.034.272-.115.321l-1.774,1.018a13.567,13.567,0,0,1-12.2-.4,22.914,22.914,0,0,1-9.069-9.377c-.008-.007-.011-.018-.018-.024L24.92,35.451c0-.011-.011-.017-.014-.029a22.822,22.822,0,0,1-3.638-12.5,13.437,13.437,0,0,1,5.768-10.716ZM30.226,8.97a2.98,2.98,0,0,0-2.692.035l-1.877,1.081c-.043.024-.081.049-.119.073a16.173,16.173,0,0,0-6.805,12.66,25.15,25.15,0,0,0,4,13.923l4.833,8.324s.007,0,.007,0l.007.021a25.336,25.336,0,0,0,10.111,10.38,16.348,16.348,0,0,0,14.417.464,1.269,1.269,0,0,0,.129-.06l1.879-1.08a2.944,2.944,0,0,0,1.374-2.3,6.226,6.226,0,0,0-.358-2.462,16.839,16.839,0,0,0-2.121-4.2,13.33,13.33,0,0,0-4.264-4.953,4.867,4.867,0,0,0-4.948-.038l-2.341,1.342a2.55,2.55,0,0,1-2.338,0A4.519,4.519,0,0,1,37.194,40.6l-5.762-9.931a4.476,4.476,0,0,1-.417-2.444,2.527,2.527,0,0,1,1.166-2.018l2.334-1.342a4.813,4.813,0,0,0,2.446-4.281,13.313,13.313,0,0,0-2.191-6.17,16.963,16.963,0,0,0-2.582-3.91A6.322,6.322,0,0,0,30.226,8.97Z" transform="translate(-18.714 -8.666)" fill="#000"/>
</svg>
