<svg xmlns="http://www.w3.org/2000/svg" width="98.487" height="101.316" viewBox="0 0 98.487 101.316" >
  <g id="integrated-development-environment" transform="translate(-3.94 -2.974)">
    <path id="Path_42" data-name="Path 42" d="M95.177,7.724H79.49V5.15A1.65,1.65,0,0,0,77.05,3.7L71.018,7.021a1.644,1.644,0,0,0-.853,1.452,1.68,1.68,0,0,0,.853,1.452l6.032,3.323a1.7,1.7,0,0,0,.793.21,1.676,1.676,0,0,0,.838-.225,1.639,1.639,0,0,0,.808-1.422V9.221H95.177a5.245,5.245,0,0,1,5.239,5.239v69.6A5.245,5.245,0,0,1,95.177,89.3h-20.6l-4.865-8.831a.744.744,0,0,0-.659-.389H27.611a13.741,13.741,0,1,0,0,19.938H69.072a.762.762,0,0,0,.659-.389L74.6,90.8h20.6a6.746,6.746,0,0,0,6.736-6.736V14.46a6.768,6.768,0,0,0-6.751-6.736ZM77.993,11.8a.15.15,0,0,1-.225.135L71.737,8.607a.131.131,0,0,1-.075-.135.157.157,0,0,1,.075-.135l6.032-3.323A.135.135,0,0,1,77.844,5a.114.114,0,0,1,.075.03.149.149,0,0,1,.075.135ZM5.937,90.049a12.244,12.244,0,1,1,12.244,12.244A12.259,12.259,0,0,1,5.937,90.049Zm62.686,8.472H28.973a13.65,13.65,0,0,0,.015-16.929H68.638l4.55,8.247a1.049,1.049,0,0,0-.045.21.528.528,0,0,0,.045.21Z" stroke="#000" stroke-width="1"/>
    <path id="Path_43" data-name="Path 43" d="M56.128,26.672a1.676,1.676,0,0,0,.838.225,1.653,1.653,0,0,0,.793-.21l6.032-3.323a1.644,1.644,0,0,0,.853-1.452,1.68,1.68,0,0,0-.853-1.452L57.76,17.138a1.65,1.65,0,0,0-2.44,1.452v6.646a1.615,1.615,0,0,0,.808,1.437ZM56.8,18.6a.149.149,0,0,1,.075-.135.114.114,0,0,1,.075-.03.135.135,0,0,1,.075.015l6.032,3.323a.131.131,0,0,1,.075.135.157.157,0,0,1-.075.135L57.027,25.37a.171.171,0,0,1-.15,0,.149.149,0,0,1-.075-.135Z" transform="translate(25.278 6.677)" stroke="#000" stroke-width="1"/>
    <path id="Path_44" data-name="Path 44" d="M55.31,45.771a1.639,1.639,0,0,0,.808,1.422,1.676,1.676,0,0,0,.838.225,1.653,1.653,0,0,0,.793-.21l6.032-3.323a1.644,1.644,0,0,0,.853-1.452,1.68,1.68,0,0,0-.853-1.452L57.75,37.658a1.65,1.65,0,0,0-2.44,1.452Zm1.5-6.631A.149.149,0,0,1,56.882,39a.114.114,0,0,1,.075-.03.135.135,0,0,1,.075.015l6.032,3.323a.131.131,0,0,1,.075.135.157.157,0,0,1-.075.135l-6.032,3.323a.171.171,0,0,1-.15,0,.149.149,0,0,1-.075-.135Z" transform="translate(25.273 16.872)" stroke="#000" stroke-width="1"/>
    <path id="Path_45" data-name="Path 45" d="M54.075,62.73H24.288a.748.748,0,1,0,0,1.5H54.075a.748.748,0,1,0,0-1.5Z" transform="translate(9.489 29.429)" stroke="#000" stroke-width="1"/>
    <path id="Path_46" data-name="Path 46" d="M24.288,60.417h20.6a.748.748,0,0,0,0-1.5h-20.6a.741.741,0,0,0-.748.748A.751.751,0,0,0,24.288,60.417Z" transform="translate(9.489 27.536)" stroke="#000" stroke-width="1"/>
    <path id="Path_47" data-name="Path 47" d="M18.181,59.086a13.646,13.646,0,0,0,9.43-3.772H69.072a.762.762,0,0,0,.659-.389l5.074-9.22a.763.763,0,0,0,0-.718l-5.074-9.205a.744.744,0,0,0-.659-.389H27.611a13.729,13.729,0,1,0-9.43,23.695Zm55.1-13.741-4.67,8.472H28.973a13.678,13.678,0,0,0,0-16.929H68.623Zm-55.1-12.229A12.244,12.244,0,1,1,5.937,45.361,12.259,12.259,0,0,1,18.181,33.117Z" transform="translate(0 13.974)" stroke="#000" stroke-width="1"/>
    <path id="Path_48" data-name="Path 48" d="M24.288,43.7H54.075a.748.748,0,0,0,0-1.5H24.288a.741.741,0,0,0-.748.748A.751.751,0,0,0,24.288,43.7Z" transform="translate(9.489 19.23)" stroke="#000" stroke-width="1"/>
    <path id="Path_49" data-name="Path 49" d="M24.288,39.887h20.6a.748.748,0,1,0,0-1.5h-20.6a.741.741,0,0,0-.748.748A.751.751,0,0,0,24.288,39.887Z" transform="translate(9.489 17.337)" stroke="#000" stroke-width="1"/>
    <path id="Path_50" data-name="Path 50" d="M18.181,38.566a13.646,13.646,0,0,0,9.43-3.772H69.072a.762.762,0,0,0,.659-.389l5.074-9.22a.763.763,0,0,0,0-.718l-5.074-9.205a.744.744,0,0,0-.659-.389H27.611a13.729,13.729,0,1,0-9.43,23.695Zm55.1-13.756-4.67,8.472H28.973a13.65,13.65,0,0,0,.015-16.929H68.638Zm-55.1-12.229A12.244,12.244,0,1,1,5.937,24.826,12.259,12.259,0,0,1,18.181,12.582Z" transform="translate(0 3.779)" stroke="#000" stroke-width="1"/>
    <path id="Path_51" data-name="Path 51" d="M24.288,23.167H54.075a.748.748,0,0,0,0-1.5H24.288a.741.741,0,0,0-.748.748A.751.751,0,0,0,24.288,23.167Z" transform="translate(9.489 9.03)" stroke="#000" stroke-width="1"/>
    <path id="Path_52" data-name="Path 52" d="M24.288,19.357h20.6a.748.748,0,1,0,0-1.5h-20.6a.741.741,0,0,0-.748.748A.751.751,0,0,0,24.288,19.357Z" transform="translate(9.489 7.137)" stroke="#000" stroke-width="1"/>
    <path id="Path_53" data-name="Path 53" d="M11.938,26.954a.748.748,0,0,0,0,1.5h5.778a.748.748,0,1,0,0-1.5H15.725V16.91A1.109,1.109,0,0,0,13.69,16.3l-2.38,3.727a.747.747,0,1,0,1.257.808l1.646-2.589v8.711Z" transform="translate(3.353 6.112)" stroke="#000" stroke-width="1"/>
    <path id="Path_54" data-name="Path 54" d="M13.843,44.8a14.473,14.473,0,0,0-2.859,2.964,1.148,1.148,0,0,0-.045,1.2A1.23,1.23,0,0,0,12,49.6h6.317a.748.748,0,0,0,0-1.5H12.57a16.374,16.374,0,0,1,2.245-2.17c1.841-1.572,3.727-3.2,3.877-5.9a3.219,3.219,0,0,0-.823-2.455,4.155,4.155,0,0,0-2.829-1.272,4.054,4.054,0,0,0-4.071,2.245.75.75,0,0,0,1.347.659,2.5,2.5,0,0,1,2.664-1.392,2.68,2.68,0,0,1,1.781.778,1.77,1.77,0,0,1,.434,1.362c-.1,2.051-1.691,3.4-3.353,4.835Z" transform="translate(3.156 16.302)" stroke="#000" stroke-width="1"/>
    <path id="Path_55" data-name="Path 55" d="M19.107,60.6A3.919,3.919,0,0,0,14.96,56.96a4.216,4.216,0,0,0-3.817,2.2.75.75,0,1,0,1.347.659,2.754,2.754,0,0,1,2.47-1.362,2.189,2.189,0,1,1,0,4.281H13.553a.748.748,0,0,0,0,1.5H14.96a2.189,2.189,0,1,1,0,4.281,2.547,2.547,0,0,1-2.619-1.826.755.755,0,0,0-.868-.6.747.747,0,0,0-.6.868,4.017,4.017,0,0,0,4.1,3.053,3.919,3.919,0,0,0,4.146-3.637,3.512,3.512,0,0,0-1.632-2.889A3.477,3.477,0,0,0,19.107,60.6Z" transform="translate(3.19 26.563)" stroke="#000" stroke-width="1"/>
  </g>
</svg>
