<svg xmlns="http://www.w3.org/2000/svg" width="100.317" height="100.317" viewBox="0 0 100.317 100.317" fill="#ffffff">
  <path id="path13423" d="M18.917,280.6a5.037,5.037,0,0,0-5.013,5.013v53.5a1.674,1.674,0,1,0,3.347,0V297.322H84.12v41.789a1.672,1.672,0,1,0,3.344,0v-53.5a5.034,5.034,0,0,0-5.009-5.013Zm0,3.347H82.455a1.622,1.622,0,0,1,1.665,1.665v8.366H17.252v-8.366a1.622,1.622,0,0,1,1.665-1.665Zm3.347,3.341a1.672,1.672,0,1,0,1.672,1.672A1.672,1.672,0,0,0,22.265,287.284Zm6.688,0a1.672,1.672,0,1,0,1.672,1.672A1.672,1.672,0,0,0,28.952,287.284Zm6.688,0a1.672,1.672,0,1,0,1.672,1.672A1.672,1.672,0,0,0,35.64,287.284Zm23.322,0a1.672,1.672,0,0,0,.078,3.344h20.07a1.672,1.672,0,0,0,0-3.344ZM5.552,290.631a5.042,5.042,0,0,0-5.022,5.009v60.193a5.045,5.045,0,0,0,5.022,5.013H95.833a5.036,5.036,0,0,0,5.013-5.013V295.641a5.034,5.034,0,0,0-5.013-5.009H92.49a1.672,1.672,0,1,0,0,3.344h3.344a1.622,1.622,0,0,1,1.665,1.665v48.493H3.873V295.641a1.633,1.633,0,0,1,1.678-1.665H8.882a1.672,1.672,0,1,0,0-3.344Zm50.171,13.346a1.672,1.672,0,0,0-1.607,1.172L44.081,335.242a1.673,1.673,0,1,0,3.174,1.061L57.29,306.2a1.672,1.672,0,0,0-1.567-2.224Zm7.269,9.666,8.49,7.083-8.49,7.073a1.673,1.673,0,1,0,2.145,2.567l10.022-8.356a1.672,1.672,0,0,0,0-2.567l-10.022-8.37a1.712,1.712,0,0,0-1.159-.4,1.676,1.676,0,0,0-.986,2.968ZM37.27,310.678a1.674,1.674,0,0,0-1.025.395l-10.032,8.37a1.672,1.672,0,0,0,0,2.567l10.032,8.356A1.672,1.672,0,1,0,38.38,327.8l-8.49-7.073,8.49-7.083a1.672,1.672,0,0,0-1.11-2.965Zm-33.4,36.8H97.5v8.353a1.622,1.622,0,0,1-1.665,1.665H5.552a1.633,1.633,0,0,1-1.678-1.665Zm50.25,3.341-6.861,0a1.668,1.668,0,0,0,.078,3.331h6.691A1.67,1.67,0,1,0,54.123,350.821ZM41.309,364.06a1.675,1.675,0,0,0-1.561.986,17.324,17.324,0,0,1-4.738,5.832H32.3a5.045,5.045,0,0,0-5.009,5.026v3.331a1.672,1.672,0,0,0,1.665,1.678H72.42a1.672,1.672,0,0,0,1.678-1.678V375.9a5.056,5.056,0,0,0-5.022-5.026h-2.71a17.326,17.326,0,0,1-4.738-5.832,1.672,1.672,0,1,0-3.03,1.414,18.893,18.893,0,0,0,2.988,4.418H39.791a18.9,18.9,0,0,0,2.988-4.418,1.672,1.672,0,0,0-1.469-2.4ZM32.3,374.226h36.78a1.644,1.644,0,0,1,1.678,1.678v1.665H30.631V375.9a1.633,1.633,0,0,1,1.665-1.678Z" transform="translate(-0.529 -280.596)"/>
</svg>
